PathFileType	4	(X/Y/Z)	Run_300 02
DataRate	CameraRate	NumFrames	NumMarkers	Units	OrigDataRate	OrigDataStartFrame	OrigNumFrames
100	100	4	45	mm	100	54	137
Frame#	Time	LASI			RASI			LPSI			RPSI			RTH1			RTH2			RTH3			LTH1			LTH2			LTH3			RTB1			RTB2			RTB3			RLMAL			RMMAL			LTB1			LTB2			LTB3			RCAL			RTOE			RMT5			LCAL			LTOE			LMT5			LACR			RACR			CLAV			C7			LPSH			RUA1			RUA2			RUA3			RLEL			RMEL			LUA1			LUA2			LUA3			LLEL			LMEL			RFAsuperior			RFAradius			RFAulna			LFAsuperior			LFAradius			LFAulna			
		X1	Y1	Z1	X2	Y2	Z2	X3	Y3	Z3	X4	Y4	Z4	X5	Y5	Z5	X6	Y6	Z6	X7	Y7	Z7	X8	Y8	Z8	X9	Y9	Z9	X10	Y10	Z10	X11	Y11	Z11	X12	Y12	Z12	X13	Y13	Z13	X14	Y14	Z14	X15	Y15	Z15	X16	Y16	Z16	X17	Y17	Z17	X18	Y18	Z18	X19	Y19	Z19	X20	Y20	Z20	X21	Y21	Z21	X22	Y22	Z22	X23	Y23	Z23	X24	Y24	Z24	X25	Y25	Z25	X26	Y26	Z26	X27	Y27	Z27	X28	Y28	Z28	X29	Y29	Z29	X30	Y30	Z30	X31	Y31	Z31	X32	Y32	Z32	X33	Y33	Z33	X34	Y34	Z34	X35	Y35	Z35	X36	Y36	Z36	X37	Y37	Z37	X38	Y38	Z38	X39	Y39	Z39	X40	Y40	Z40	X41	Y41	Z41	X42	Y42	Z42	X43	Y43	Z43	X44	Y44	Z44	X45	Y45	Z45	

54	0.99	937.404645	1032.898415	-430.90916	955.237106	1034.715929	-194.002871	777.5390609999999	1081.891763	-347.990114	781.1089019999999	1075.955666	-258.069594	949.60331	796.484214	-148.878915	1055.121018	770.793585	-176.688536	1041.862177	653.170587	-178.108655	820.099611	821.30968	-472.633584	885.949747	706.402886	-459.962897	825.8598030000001	611.2895140000001	-441.972487	1019.687845	456.592293	-224.656436	951.325262	460.608919	-178.644151	859.260532	369.584186	-212.36474	743.533218	341.74646	-190.227703	771.351007	326.582855	-269.489248	812.142814	375.158756	-387.934925	690.246831	320.894106	-406.079682	703.563743	219.749173	-351.486074	688.514034	364.881026	-259.546099	797.084894	176.937875	-206.658816	744.621068	231.859171	-143.921512	534.196234	121.038861	-291.123601	750.416439	65.352136	-316.832181	686.20897	57.824174	-383.070495	931.548109	1535.063213	-476.669314	908.728293	1521.524019	-156.399399	989.38665	1461.248701	-286.632408	883.9234279999999	1557.763582	-317.062726	851.611745	1495.14432	-494.081406	824.05026	1390.791784	-70.283225	736.183815	1364.518542	-91.416247	724.66757	1311.555244	-44.427745	718.079621	1244.94705	-20.155725	686.945209	1240.422498	-103.77058	863.67835	1399.70625	-550.046776	799.8396	1319.084624	-534.895321	827.8430969999999	1268.886191	-582.240039	835.598379	1193.570604	-597.611264	797.926575	1185.800162	-513.375478	755.045492	1178.115586	-41.599382	936.028492	1153.222699	-123.419074	908.560605	1093.017906	-106.187051	909.658798	1160.447846	-544.971842	1039.511891	1253.768469	-475.605917	1057.115469	1187.379952	-476.098446	
55	1	940.617489	1038.51368	-429.799676	956.5087129999999	1043.561168	-193.684103	781.1857649999999	1089.532348	-349.847829	784.1814429999999	1084.180256	-259.791166	953.649504	806.042691	-148.335843	1058.558859	782.973417	-176.221146	1046.807332	664.75965	-178.249936	815.394648	829.5355060000001	-472.036809	875.631214	712.169103	-458.388841	810.031614	620.047702	-442.279262	1035.905017	462.487787	-225.298512	967.2627210000001	460.598408	-178.92012	883.328759	362.203337	-212.814865	770.27615	324.092122	-190.928484	799.427779	311.811582	-270.48115	787.803038	383.337766	-389.372323	665.10727	331.058586	-406.13763	678.995057	228.187234	-352.834177	713.438135	342.348121	-260.289673	838.561179	165.033205	-207.477731	781.087888	214.740171	-144.723242	510.286514	133.700487	-292.316638	719.167098	64.975298	-316.754645	658.053494	58.771673	-383.800481	931.615757	1544.381095	-475.018782	904.286955	1529.874636	-156.322053	988.312552	1470.254592	-284.755179	883.14176	1565.565607	-316.61879	852.307356	1503.506016	-493.780645	816.700011	1401.67443	-71.139066	729.894526	1375.503337	-94.707256	716.664171	1322.98165	-47.66685	708.6432119999999	1256.282373	-23.135422	679.104463	1252.28518	-107.529329	866.1176819999999	1407.776499	-549.449429	804.564944	1325.483313	-534.985496	834.808577	1276.244472	-582.107208	844.866414	1200.775297	-596.94155	804.608597	1193.08064	-512.995264	746.2010299999999	1189.920099	-44.390158	928.989311	1166.909612	-122.485278	901.769226	1106.316653	-106.585556	918.633867	1172.372112	-541.058461	1041.491435	1273.170381	-469.534473	1062.296578	1207.741021	-468.312785	
56	1.01	944.174829	1044.830304	-428.338017	957.843309	1053.155708	-193.099918	785.16777	1097.662294	-349.722698	787.860554	1092.785189	-261.824359	957.162418	815.620142	-147.690281	1061.089746	794.231232	-175.564874	1050.063892	675.647412	-178.374005	811.303559	838.507368	-471.427205	865.9951129999999	719.179993	-457.363337	795.3845690000001	630.121131	-442.998603	1050.730458	467.915155	-225.646537	982.451103	459.75081	-179.218717	907.63751	354.239354	-213.916074	798.184712	305.93315	-192.106149	828.613365	296.605875	-271.740826	765.042924	393.309059	-391.613673	641.6891010000001	342.840032	-406.386107	656.404976	238.028361	-354.961974	740.144857	319.187973	-261.617323	880.795059	153.843369	-208.799791	818.660602	197.853059	-146.137835	488.927259	147.877186	-293.70495	688.431505	64.399787	-317.068643	630.463799	59.470001	-384.434728	931.688441	1553.829777	-473.554428	900.542406	1538.383234	-156.260997	987.365795	1479.473948	-283.036808	882.449738	1573.688372	-316.162327	853.025568	1512.174558	-493.536039	810.207056	1412.741269	-72.341527	724.4143340000001	1386.677062	-98.59556499999999	709.303687	1334.741405	-51.465121	699.9485069999999	1267.857778	-26.615186	671.939166	1264.200832	-111.659192	868.43929	1416.299909	-548.829627	809.048097	1332.636948	-533.932047	840.386845	1284.446662	-581.668085	853.006003	1208.676746	-595.996294	810.543436	1200.830711	-512.447257	738.07775	1201.767114	-47.616884	922.7609220000001	1180.548102	-121.704727	895.7273269999999	1119.660734	-106.983067	926.20633	1184.659822	-537.084523	1042.124005	1292.226863	-463.761129	1065.758033	1227.80058	-460.754161	
57	1.02	947.938975	1051.911914	-426.937973	959.252	1063.070332	-192.30742	789.467305	1106.598514	-346.759419	791.499609	1101.652927	-263.338282	959.821365	825.190365	-147.130597	1062.852205	804.513208	-174.822014	1051.840392	685.622117	-178.404302	807.7148549999999	847.972714	-470.91905	857.068082	727.061732	-457.064267	782.002351	641.117315	-443.902263	1064.120229	472.702606	-225.382216	996.68288	458.104064	-179.378635	932.052306	345.967651	-215.20316	827.262263	287.512785	-193.806228	858.969821	281.341405	-273.210201	744.139406	404.670313	-394.65422	620.258072	355.667525	-406.555257	636.157539	248.844087	-358.126777	768.654255	295.809957	-263.500101	923.568577	143.590825	-210.55404	857.099756	181.39614	-148.074831	470.753348	163.202268	-295.255345	658.637128	63.977583	-317.918795	603.083285	60.032055	-384.808597	931.889366	1563.202417	-472.29285	897.547316	1546.826485	-156.137572	986.539907	1488.588113	-281.527882	881.7982950000001	1581.842408	-315.723984	853.823163	1520.954153	-493.249153	804.7544799999999	1423.571771	-73.795006	719.881991	1397.774107	-102.946038	702.695261	1346.568475	-55.715775	692.081111	1279.457508	-30.508218	665.775548	1275.935284	-116.27288	870.749197	1425.081895	-548.090706	812.941161	1340.483914	-532.388318	844.887392	1293.199023	-580.992201	860.022931	1217.027073	-594.87281	815.656322	1208.896271	-511.805811	730.761019	1213.539294	-51.015871	917.301884	1193.908013	-120.793993	890.354662	1132.691499	-107.509159	932.44087	1196.992707	-533.176418	1041.645696	1310.501982	-458.373051	1067.744624	1247.118356	-453.585112	
